<svg width="22" height="22" viewBox="0 0 22 22" fill="none" xmlns="http://www.w3.org/2000/svg">
<path d="M16.0902 15.3543C14.801 14.0651 13.0524 13.3409 11.2292 13.3409C9.40594 13.3409 7.65737 14.0651 6.36808 15.3543M16.5 3.48709C15.2368 2.75778 13.7356 2.56014 12.3266 2.93765C10.9177 3.31516 9.71636 4.23689 8.987 5.50009L18.513 11.0001C19.2423 9.73686 19.4399 8.23565 19.0624 6.8267C18.6849 5.41775 17.7632 4.21646 16.5 3.48709Z" stroke="#EEEEEE" stroke-width="2" stroke-linecap="round" stroke-linejoin="round"/>
<path d="M15.3377 9.16684C16.8575 6.536 17.3773 3.99317 16.5 3.48717C15.6228 2.98117 13.6812 4.70267 12.1623 7.3335M13.75 8.25017L11 13.0132M2.75 17.646C3.03535 17.5041 3.34812 17.4259 3.66667 17.4168C4.0237 17.4094 4.3772 17.4889 4.69661 17.6486C5.01603 17.8083 5.29176 18.0434 5.5 18.3335C5.70824 18.6236 5.98397 18.8587 6.30339 19.0184C6.6228 19.1781 6.9763 19.2576 7.33333 19.2502C7.69037 19.2576 8.04386 19.1781 8.36328 19.0184C8.68269 18.8587 8.95843 18.6236 9.16667 18.3335C9.37491 18.0434 9.65064 17.8083 9.97006 17.6486C10.2895 17.4889 10.643 17.4094 11 17.4168C11.357 17.4094 11.7105 17.4889 12.0299 17.6486C12.3494 17.8083 12.6251 18.0434 12.8333 18.3335C13.0416 18.6236 13.3173 18.8587 13.6367 19.0184C13.9561 19.1781 14.3096 19.2576 14.6667 19.2502C15.0237 19.2576 15.3772 19.1781 15.6966 19.0184C16.016 18.8587 16.2918 18.6236 16.5 18.3335C16.7082 18.0434 16.984 17.8083 17.3034 17.6486C17.6228 17.4889 17.9763 17.4094 18.3333 17.4168C18.6519 17.4259 18.9646 17.5041 19.25 17.646" stroke="#EEEEEE" stroke-width="2" stroke-linecap="round" stroke-linejoin="round"/>
</svg>
