<svg width="20" height="20" viewBox="0 0 20 20" fill="none" xmlns="http://www.w3.org/2000/svg">
<path d="M9 0V0.996579C7.27 1.1959 5.69 1.8935 4.4 2.92994L3.64 2.17254L2.22 3.58769L3 4.33512C1.90413 5.6585 1.21026 7.26623 1 8.96921H0V10.9624H1C1.21 12.6366 1.9 14.2112 3 15.5068L2.22 16.2642L3.64 17.6793L4.39 16.9418C5.71403 18.0152 7.30892 18.7048 9 18.935V19.9316H11V18.935C12.688 18.7045 14.2796 18.0149 15.6 16.9418L16.36 17.6793L17.78 16.2642L17 15.5167C18.1 14.2212 18.79 12.6366 19 10.9624H20V8.96921H19C18.7901 7.26914 18.0961 5.66452 17 4.34509L17.78 3.58769L16.36 2.17254L15.61 2.92994C14.2875 1.86436 12.6891 1.19402 11 0.996579V0H9ZM9 2.98974V5.97948L8 6.47777L5.81 4.33512C6.72 3.65745 7.81 3.15916 9 2.98974ZM11 2.98974C12.16 3.16912 13.26 3.62755 14.2 4.33512L12 6.47777L11 5.97948V2.98974ZM4.4 5.7403L6.5 7.97263L6 8.96921H3C3.16 7.81318 3.7 6.67708 4.39 5.73033L4.4 5.7403ZM15.6 5.7403C16.33 6.68705 16.81 7.79325 17 8.96921H14L13.5 7.97263L15.61 5.7403H15.6ZM10 7.97263C11.12 7.97263 12 8.84962 12 9.96579C12 11.082 11.12 11.959 10 11.959C8.88 11.959 8 11.082 8 9.96579C8 8.84962 8.88 7.97263 10 7.97263ZM3 10.9624H6L6.57 11.959L4.39 14.1016C3.67 13.1947 3.19 12.1184 3 10.9624ZM14 10.9624H17C16.8077 12.1113 16.3299 13.1939 15.61 14.1116L13.5 11.959L14 10.9624ZM8 13.4538L9 13.9521V16.9418C7.82983 16.7433 6.72905 16.253 5.8 15.5167L8 13.4538ZM12 13.4538L14.19 15.5167C13.28 16.1944 12.19 16.7724 11 16.9418V13.9521L12 13.4538Z" fill="#EEEEEE"/>
</svg>
