<svg width="20" height="18" viewBox="0 0 20 18" fill="none" xmlns="http://www.w3.org/2000/svg">
<path d="M2.30769 0C2.10368 0 1.90802 0.0790178 1.76376 0.21967C1.61951 0.360322 1.53846 0.551088 1.53846 0.75C1.53846 0.948912 1.61951 1.13968 1.76376 1.28033C1.90802 1.42098 2.10368 1.5 2.30769 1.5H3.07692C5.63538 1.5 7.69231 3.5055 7.69231 6V13.875C8.26219 13.8795 8.8102 14.0895 9.23077 14.4645V6C9.22947 5.18252 9.05686 4.37393 8.72352 3.62383C8.39018 2.87374 7.90315 2.19797 7.29231 1.638C8.28803 1.88242 9.17126 2.44463 9.80135 3.23511C10.4314 4.02558 10.7721 4.99888 10.7692 6V14.4645C11.1898 14.0895 11.7378 13.8795 12.3077 13.875V6C12.3064 5.18252 12.1338 4.37393 11.8004 3.62383C11.4671 2.87374 10.9801 2.19797 10.3692 1.638C11.365 1.88242 12.2482 2.44463 12.8783 3.23511C13.5084 4.02558 13.8491 4.99888 13.8462 6V14.4645L13.9385 14.5335C14.42 15.003 14.6385 15 14.6154 15C14.6154 15 14.7938 15.0195 15.2923 14.535C15.3231 14.51 15.3538 14.4865 15.3846 14.4645V6C15.3846 2.6955 12.62 0 9.23077 0H2.30769ZM2.53385 15.5955C1.85385 16.2555 1.28154 16.5 0.769231 16.5C0.565218 16.5 0.369561 16.579 0.225302 16.7197C0.0810437 16.8603 0 17.0511 0 17.25C0 17.4489 0.0810437 17.6397 0.225302 17.7803C0.369561 17.921 0.565218 18 0.769231 18C1.6 18 2.34923 17.484 3.07692 16.9125C3.8 17.481 4.54769 18 5.38462 18C6.21538 18 6.96462 17.484 7.69231 16.9125C8.42 17.4825 9.16923 18 10 18C10.8308 18 11.58 17.484 12.3077 16.9125C13.0308 17.481 13.7785 18 14.6154 18C15.4462 18 16.1954 17.484 16.9231 16.9125C17.6508 17.4825 18.4 18 19.2308 18C19.4348 18 19.6304 17.921 19.7747 17.7803C19.919 17.6397 20 17.4489 20 17.25C20 17.0511 19.919 16.8603 19.7747 16.7197C19.6304 16.579 19.4348 16.5 19.2308 16.5C18.7185 16.5 18.1462 16.257 17.4677 15.594C17.3234 15.4534 17.1278 15.3744 16.9238 15.3744C16.7199 15.3744 16.5243 15.4534 16.38 15.594C15.7 16.257 15.1277 16.5 14.6154 16.5C14.1108 16.5 13.5169 16.2435 12.8523 15.594C12.7081 15.4534 12.5124 15.3744 12.3085 15.3744C12.1045 15.3744 11.9089 15.4534 11.7646 15.594C11.0846 16.257 10.5123 16.5 10 16.5C9.48769 16.5 8.91538 16.257 8.23692 15.594C8.16547 15.5242 8.08058 15.4687 7.98713 15.4309C7.89367 15.3931 7.79349 15.3737 7.69231 15.3737C7.59113 15.3737 7.49094 15.3931 7.39749 15.4309C7.30403 15.4687 7.21915 15.5242 7.14769 15.594C6.47077 16.257 5.89692 16.5 5.38462 16.5C4.88 16.5 4.28615 16.2435 3.62154 15.594C3.47729 15.4534 3.28166 15.3744 3.07769 15.3744C2.87372 15.3744 2.6781 15.4534 2.53385 15.594" fill="#EEEEEE"/>
</svg>
