<svg width="19" height="15" viewBox="0 0 19 15" fill="none" xmlns="http://www.w3.org/2000/svg">
<path d="M6.08083 2.41673C4.3925 2.04673 0.75 2.49715 0.75 6.49465V14.0834H3.19583V11.4921H10.1825V14.0834H12.6283V9.45632C12.9192 9.20965 13.42 11.1763 14.3746 11.6771C14.9383 11.973 15.4229 12.1655 15.9467 12.0476C17.0813 11.7921 17.6238 11.048 17.3442 9.27132C16.82 9.88798 15.2483 10.5596 15.0733 9.27132V3.90382C14.8988 2.79298 13.8858 0.609234 11.2304 0.75715H8.36833C7.14583 0.750067 5.32917 2.42298 5.74833 4.64382C5.87833 5.3334 6.375 6.71048 8.12625 6.86465C8.825 6.92673 9.98042 6.64298 10.6792 5.01423" stroke="#EEEEEE" stroke-width="1.5" stroke-linecap="round" stroke-linejoin="round"/>
</svg>
